<svg width="33" height="33" viewBox="0 0 33 33" fill="none" xmlns="http://www.w3.org/2000/svg">
<g id="ic:round-key">
<path id="Vector" d="M28.0119 14.1307H17.4464C16.8029 12.3084 15.5208 10.7811 13.8374 9.83174C12.1541 8.88242 10.1837 8.57543 8.29139 8.96766C5.24417 9.57977 2.76913 12.0282 2.13041 15.0621C1.87186 16.2293 1.87866 17.4397 2.15029 18.604C2.42193 19.7682 2.95147 20.8567 3.69987 21.7889C4.44826 22.7212 5.3964 23.4736 6.47436 23.9906C7.55232 24.5076 8.73259 24.776 9.92811 24.776C11.5781 24.776 13.1874 24.2641 14.534 23.3107C15.8806 22.3573 16.8982 21.0096 17.4464 19.4533H17.9121L19.6287 21.1699C20.1476 21.6888 20.986 21.6888 21.5049 21.1699L23.2348 19.4533L24.9513 21.1699C25.4703 21.6888 26.3219 21.6888 26.8409 21.1699L30.2873 17.6968C30.4113 17.5723 30.5094 17.4245 30.5759 17.2619C30.6425 17.0992 30.6761 16.925 30.6748 16.7493C30.6736 16.5736 30.6375 16.3998 30.5687 16.2382C30.4999 16.0765 30.3998 15.93 30.274 15.8073L28.9566 14.5165C28.6905 14.2637 28.3578 14.1307 28.0119 14.1307ZM9.92811 20.784C7.73251 20.784 5.93611 18.9876 5.93611 16.792C5.93611 14.5964 7.73251 12.8 9.92811 12.8C12.1237 12.8 13.9201 14.5964 13.9201 16.792C13.9201 18.9876 12.1237 20.784 9.92811 20.784Z" fill="#98A2B3"/>
</g>
</svg>
