<svg width="50" height="50" viewBox="0 0 50 50" fill="none" xmlns="http://www.w3.org/2000/svg">
<g id="jam:world">
<path id="Vector" d="M8.85768 20.8333C8.50801 22.1946 8.33161 23.5945 8.33268 25C8.33268 26.4375 8.51602 27.8333 8.85768 29.1667H14.791C14.5101 26.396 14.5101 23.604 14.791 20.8333H8.85768ZM10.5618 16.6667H15.4493C16.0035 14.1312 16.8035 11.8604 17.7848 9.97082C14.7601 11.4279 12.2435 13.7609 10.5618 16.6667ZM41.141 20.8333H35.2077C35.4886 23.604 35.4886 26.396 35.2077 29.1667H41.141C41.8424 26.4332 41.8424 23.5668 41.141 20.8333ZM39.4369 16.6667C37.7552 13.7609 35.2386 11.4279 32.2139 9.97082C33.1973 11.8604 33.9952 14.1312 34.5494 16.6667H39.4369ZM18.9827 20.8333C18.8266 22.2167 18.7487 23.6078 18.7493 25C18.7493 26.4271 18.8285 27.8229 18.9827 29.1667H31.016C31.3298 26.3977 31.3298 23.6022 31.016 20.8333H18.9827ZM19.7285 16.6667H30.2702C29.891 15.1006 29.3441 13.58 28.6389 12.1312C27.3306 9.51666 25.9306 8.33332 24.9994 8.33332C24.066 8.33332 22.6681 9.51666 21.3598 12.1312C20.7035 13.4479 20.1514 14.9792 19.7285 16.6667ZM10.5618 33.3333C12.2435 36.2391 14.7601 38.572 17.7848 40.0292C16.8014 38.1396 16.0035 35.8687 15.4493 33.3333H10.5618ZM39.4369 33.3333H34.5494C33.9952 35.8687 33.1952 38.1396 32.2139 40.0292C35.2386 38.572 37.7552 36.2391 39.4369 33.3333ZM19.7285 33.3333C20.1514 35.0208 20.7035 36.5521 21.3598 37.8687C22.6681 40.4833 24.0681 41.6667 24.9994 41.6667C25.9327 41.6667 27.3306 40.4833 28.6389 37.8687C29.2952 36.5521 29.8473 35.0208 30.2702 33.3333H19.7285ZM24.9994 45.8333C13.4931 45.8333 4.16602 36.5062 4.16602 25C4.16602 13.4937 13.4931 4.16666 24.9994 4.16666C36.5056 4.16666 45.8327 13.4937 45.8327 25C45.8327 36.5062 36.5056 45.8333 24.9994 45.8333Z" fill="#8B8E95"/>
</g>
</svg>
