<svg width="33" height="33" viewBox="0 0 33 33" fill="none" xmlns="http://www.w3.org/2000/svg">
<g id="ph:eye">
<path id="Vector" d="M31.3031 16.3558C31.2595 16.2572 30.2028 13.9132 27.8538 11.5642C24.7238 8.43418 20.7705 6.77999 16.4192 6.77999C12.0679 6.77999 8.1146 8.43418 4.98462 11.5642C2.63558 13.9132 1.57396 16.261 1.53528 16.3558C1.47854 16.4834 1.44922 16.6216 1.44922 16.7612C1.44922 16.9009 1.47854 17.039 1.53528 17.1667C1.57895 17.2652 2.63558 19.608 4.98462 21.9571C8.1146 25.0858 12.0679 26.74 16.4192 26.74C20.7705 26.74 24.7238 25.0858 27.8538 21.9571C30.2028 19.608 31.2595 17.2652 31.3031 17.1667C31.3599 17.039 31.3892 16.9009 31.3892 16.7612C31.3892 16.6216 31.3599 16.4834 31.3031 16.3558ZM16.4192 24.744C12.5794 24.744 9.22487 23.348 6.44794 20.5961C5.30853 19.4629 4.33915 18.1709 3.56996 16.76C4.33894 15.349 5.30834 14.0569 6.44794 12.9239C9.22487 10.1719 12.5794 8.77599 16.4192 8.77599C20.259 8.77599 23.6135 10.1719 26.3905 12.9239C27.5321 14.0566 28.5036 15.3487 29.2747 16.76C28.3752 18.4391 24.4569 24.744 16.4192 24.744ZM16.4192 10.772C15.2349 10.772 14.0772 11.1232 13.0925 11.7812C12.1077 12.4391 11.3402 13.3743 10.887 14.4685C10.4338 15.5626 10.3152 16.7666 10.5463 17.9282C10.7773 19.0897 11.3476 20.1567 12.1851 20.9941C13.0225 21.8316 14.0894 22.4019 15.251 22.6329C16.4126 22.864 17.6166 22.7454 18.7107 22.2922C19.8049 21.839 20.7401 21.0715 21.398 20.0867C22.056 19.102 22.4072 17.9443 22.4072 16.76C22.4056 15.1724 21.7742 13.6503 20.6515 12.5277C19.5289 11.405 18.0068 10.7736 16.4192 10.772ZM16.4192 20.752C15.6297 20.752 14.8579 20.5179 14.2014 20.0792C13.5449 19.6406 13.0332 19.0171 12.7311 18.2877C12.4289 17.5582 12.3499 16.7556 12.5039 15.9812C12.6579 15.2068 13.0381 14.4955 13.5964 13.9372C14.1547 13.3789 14.866 12.9987 15.6404 12.8447C16.4148 12.6907 17.2174 12.7697 17.9469 13.0719C18.6763 13.374 19.2998 13.8857 19.7384 14.5422C20.1771 15.1986 20.4112 15.9704 20.4112 16.76C20.4112 17.8187 19.9906 18.8341 19.242 19.5828C18.4933 20.3314 17.478 20.752 16.4192 20.752Z" fill="#98A2B3"/>
</g>
</svg>
